<svg xmlns="http://www.w3.org/2000/svg" xmlns:xlink="http://www.w3.org/1999/xlink" viewBox="0 0 1024 1024"><defs><rect id="a" width="1024" height="1024"/><linearGradient id="c" x1="50%" x2="50%" y1="100%" y2="0%"><stop offset="0%" stop-color="#76C3C3"/><stop offset="100%" stop-color="#183468"/></linearGradient><linearGradient id="d" x1="100%" x2="0%" y1="50%" y2="50%"><stop offset="0%" stop-color="#486587"/><stop offset="33.23%" stop-color="#183352"/><stop offset="66.67%" stop-color="#264A6E"/><stop offset="100%" stop-color="#183352"/></linearGradient><linearGradient id="e" x1="49.87%" x2="49.87%" y1="3.62%" y2="77.75%"><stop offset="0%" stop-color="#B0DDF1"/><stop offset="100%" stop-color="#325C82"/></linearGradient><linearGradient id="f" x1="100%" x2="72.45%" y1="0%" y2="85.2%"><stop offset="0%" stop-color="#1D3A6D"/><stop offset="100%" stop-color="#467994"/></linearGradient><linearGradient id="g" x1="49.87%" x2="48.5%" y1="3.62%" y2="100%"><stop offset="0%" stop-color="#E0F2FA"/><stop offset="8.98%" stop-color="#89BED6"/><stop offset="32.98%" stop-color="#1E3C6E"/><stop offset="100%" stop-color="#1B376B"/></linearGradient><linearGradient id="h" x1="91.59%" x2="66.97%" y1="5.89%" y2="100%"><stop offset="0%" stop-color="#1D3A6D"/><stop offset="100%" stop-color="#467994"/></linearGradient><linearGradient id="i" x1="97.27%" x2="52.53%" y1="6.88%" y2="100%"><stop offset="0%" stop-color="#1D3A6D"/><stop offset="100%" stop-color="#467994"/></linearGradient><linearGradient id="j" x1="82.73%" x2="41.46%" y1="41.06%" y2="167.23%"><stop offset="0%" stop-color="#1D3A6D"/><stop offset="100%" stop-color="#467994"/></linearGradient><linearGradient id="k" x1="50%" x2="50%" y1="59.64%" y2="100%"><stop offset="0%" stop-color="#FFFFFF"/><stop offset="100%" stop-color="#E9E9E9" stop-opacity="0"/></linearGradient><circle id="m" cx="1066" cy="125" r="40"/><filter id="l" width="340%" height="340%" x="-120%" y="-120%" filterUnits="objectBoundingBox"><feOffset in="SourceAlpha" result="shadowOffsetOuter1"/><feGaussianBlur in="shadowOffsetOuter1" result="shadowBlurOuter1" stdDeviation="32"/><feColorMatrix in="shadowBlurOuter1" values="0 0 0 0 1 0 0 0 0 1 0 0 0 0 1 0 0 0 0.696473053 0"/></filter><linearGradient id="n" x1="0%" y1="50%" y2="50%"><stop offset="0%" stop-color="#FFFFFF" stop-opacity="0"/><stop offset="100%" stop-color="#FFFFFF"/></linearGradient><linearGradient id="o" x1="100%" x2="62.1%" y1="0%" y2="68.86%"><stop offset="0%" stop-color="#163055"/><stop offset="100%" stop-color="#2F587F"/></linearGradient></defs><g fill="none" fill-rule="evenodd"><mask id="b" fill="white"><use xlink:href="#a"/></mask><use fill="#D8D8D8" xlink:href="#a"/><g mask="url(#b)"><g transform="translate(-792 -1)"><rect width="1024" height="1024" x="792" fill="url(#c)"/><polygon fill="#8DBCD2" points="1649 508 1653 507 1653 518 1649 518"/><polygon fill="#8DBCD2" points="1629 504 1633 503 1633 518 1629 518"/><polygon fill="#183352" points="1593 503 1597 504 1597 518 1593 518"/><polygon fill="#183352" points="1573 507 1577 508 1577 522 1573 522"/><g transform="translate(1553 481)"><rect width="2" height="20" x="59" fill="#183352" opacity=".5"/><path fill="url(#d)" d="M61 0c3 0 3 2 6 2s3-2 6-2 3 2 6 2v8c-3 0-3-2-6-2s-3 2-6 2-3-2-6-2V0z"/><path fill="#8DBCD2" d="M50 20l10-2v110H0L10 28l10-2v10.92l10-.98V24l10-2v12.96l10-.98V20z"/><path fill="#183352" d="M100 26l10 2 10 100H60V18l10 2v13.98l10 .98V22l10 2v11.94l10 .98V26z"/></g><g transform="translate(818 245)"><path fill="url(#e)" d="M289.12 450.57C312.22 464.04 263.85 532.52 144 656h649C448.94 514.3 280.98 445.83 289.12 450.57z"/><path fill="url(#f)" d="M262.5 402c-48 50 147.33 58.02 36 136.5-40.67 28.67 21.17 67.83 185.5 117.5H0l262.5-254z"/><path fill="url(#f)" d="M298.5 538.5C257.83 567.17 319.67 606.33 484 656H120l178.5-117.5z"/></g><g transform="translate(30 245)"><path fill="url(#g)" d="M1037 350c250 0 301.46 112.6 500 125 198.54 12.4 250-62.5 500-62.5s322.94-41.08 500 62.5c118.04 69.06 118.04 145.72 0 230H37c-48.17-215.17-48.17-333.84 0-356 72.26-33.24 250.75 125.75 500 126s250-125 500-125z" transform="matrix(-1 0 0 1 2626.403 0)"/><path fill="url(#e)" d="M1047 320c250 0 301.46 112.6 500 125 198.54 12.4 250-62.5 500-62.5s322.94-41.08 500 62.5c118.04 69.06 118.04 145.72 0 230H47C-1.17 459.83-1.17 341.16 47 319c72.26-33.24 250.75 125.75 500 126s250-125 500-125z"/><path fill="url(#e)" d="M1106.12 450.57c23.1 13.47-25.27 81.95-145.12 205.43h649c-344.06-141.7-512.02-210.17-503.88-205.43z"/><path fill="url(#h)" d="M1047 320c71.14 0 86.22 26.04 32.5 82-48 50 147.33 58.02 36 136.5-40.67 28.67 21.17 67.83 185.5 117.5H47C-1.17 453.5-1.17 341.16 47 319c72.26-33.24 250.75 125.75 500 126s250-125 500-125z"/><path fill="url(#i)" d="M1079.5 402c-48 50 147.33 58.02 36 136.5-40.67 28.67 21.17 67.83 185.5 117.5H817l262.5-254z"/><path fill="url(#j)" d="M1115.5 538.5c-40.67 28.67 21.17 67.83 185.5 117.5H937l178.5-117.5z"/></g><path fill="url(#k)" d="M1400.67 432.48a9.46 9.46 0 0 1 13.33 0 9.46 9.46 0 0 0 13.33 0l13.33-13.24a28.39 28.39 0 0 1 40 0l10 9.93a14.2 14.2 0 0 0 20 0 14.2 14.2 0 0 1 20 0l.6.6a31.8 31.8 0 0 1 9.4 22.56H1394v-3.84c0-6.01 2.4-11.78 6.67-16.01zM1591.1 315.1l5.9-5.86c11.07-11 28.93-11 40 0l10 9.94a14.19 14.19 0 0 0 20 0 14.19 14.19 0 0 1 20 0 16.36 16.36 0 0 0 21.3 1.5l8.7-6.47a33.47 33.47 0 0 1 40 0l4.06 3.03A39.6 39.6 0 0 1 1777 349h-200a47.77 47.77 0 0 1 14.1-33.89z" opacity=".2"/><g><use fill="black" filter="url(#l)" xlink:href="#m"/><use fill="#D2F1FE" xlink:href="#m"/></g><circle cx="1009" cy="278" r="3" fill="#FFFFFF" fill-opacity=".4"/><circle cx="888" cy="257" r="2" fill="#FFFFFF"/><circle cx="919" cy="88" r="3" fill="#FFFFFF"/><circle cx="1008" cy="25" r="2" fill="#FFFFFF"/><circle cx="958" cy="167" r="2" fill="#FFFFFF"/><circle cx="1168" cy="247" r="2" fill="#FFFFFF"/><circle cx="1259" cy="88" r="3" fill="#FFFFFF" opacity=".4"/><circle cx="1319" cy="278" r="3" fill="#FFFFFF"/><path fill="url(#n)" d="M1259.25 348.25a5 5 0 1 0 0-10h-75v10h75z" opacity=".4" transform="rotate(45 1224.251 343.251)"/><circle cx="1249" cy="368" r="3" fill="#FFFFFF"/><circle cx="1399" cy="138" r="3" fill="#FFFFFF"/><circle cx="1609" cy="28" r="3" fill="#FFFFFF" opacity=".4"/><circle cx="1308" cy="157" r="2" fill="#FFFFFF"/><circle cx="1638" cy="227" r="2" fill="#FFFFFF"/><circle cx="1558" cy="137" r="2" fill="#FFFFFF"/><circle cx="1739" cy="278" r="3" fill="#FFFFFF" opacity=".4"/><circle cx="1509" cy="248" r="3" fill="#FFFFFF"/><circle cx="1709" cy="78" r="3" fill="#FFFFFF"/><circle cx="1788" cy="167" r="2" fill="#FFFFFF"/><circle cx="1438" cy="37" r="2" fill="#FFFFFF"/><path fill="url(#e)" d="M1036.26 746.58c250.03 0 301.5 112.72 500.07 125.15 198.56 12.42 250.03-62.58 500.06-62.58s322.98-41.13 500.07 62.58c118.05 69.13 118.05 145.9 0 230.27H36.13c-48.17-215.43-48.17-334.24 0-356.43 72.27-33.27 250.79 125.9 500.07 126.16 249.28.24 250.03-125.15 500.06-125.15z" transform="matrix(-1 0 0 1 2625 0)"/><path fill="url(#f)" d="M2551.09 746.58c61.79 0 146.67 106.06-39.97 162.64-72.66 22.03-59.34 76.29 39.97 162.78h-999.96c-48.17-195.43-48.17-304.24 0-326.42 72.25-33.29 250.74 125.91 499.98 126.16 249.23.25 249.99-125.16 499.98-125.16z" transform="matrix(-1 0 0 1 4140 0)"/><path fill="url(#o)" d="M2159.03 909c-72.66 22.06-59.34 76.4 39.97 163h-610l570.03-163z" transform="matrix(-1 0 0 1 3788 0)"/><path fill="#486587" d="M1588 535a4 4 0 0 1 4 4v20h-8v-20a4 4 0 0 1 4-4z"/><path fill="#071423" d="M1590 535.54a4 4 0 0 0-2 3.46v20h-4v-20a4 4 0 0 1 6-3.46zm48-.54a4 4 0 0 1 4 4v20h-8v-20a4 4 0 0 1 4-4z"/><path fill="#8DBCD2" d="M1638 559v-20a4 4 0 0 0-2-3.46 4 4 0 0 1 6 3.46v20h-4z"/><path fill="url(#k)" d="M860.1 376.14l.9-.9a21.29 21.29 0 0 1 30 0 21.29 21.29 0 0 0 30 0l10-9.93a35.48 35.48 0 0 1 50 0l15 14.9a14.2 14.2 0 0 0 20 0 14.2 14.2 0 0 1 20 0c6.4 6.35 10 15 10 24.02V410H846c0-12.71 5.07-24.9 14.1-33.86z" opacity=".2"/></g></g></g></svg>